<svg width="17" height="19" viewBox="0 0 17 19" fill="none" xmlns="http://www.w3.org/2000/svg">
<path fill-rule="evenodd" clip-rule="evenodd" d="M8.50039 0.333252C6.95329 0.333252 5.46956 0.947833 4.3756 2.0418C3.28164 3.13576 2.66706 4.61949 2.66706 6.16658C2.66706 8.96047 2.0695 10.6954 1.51881 11.705C1.24232 12.212 0.973079 12.5445 0.786055 12.7419C0.692325 12.8408 0.618672 12.9064 0.574325 12.9434C0.552141 12.9619 0.537263 12.9732 0.530846 12.978L0.528465 12.9798C0.229728 13.185 0.0975282 13.5603 0.202814 13.9081C0.309229 14.2595 0.633168 14.4999 1.00039 14.4999H16.0004C16.3676 14.4999 16.6916 14.2595 16.798 13.9081C16.9033 13.5603 16.7711 13.185 16.4723 12.9798L16.4699 12.978C16.4635 12.9732 16.4486 12.9619 16.4265 12.9434C16.3821 12.9064 16.3085 12.8408 16.2147 12.7419C16.0277 12.5445 15.7585 12.212 15.482 11.705C14.9313 10.6954 14.3337 8.96047 14.3337 6.16658C14.3337 4.61949 13.7191 3.13576 12.6252 2.0418C11.5312 0.947833 10.0475 0.333252 8.50039 0.333252ZM14.0188 12.5031C14.0822 12.6194 14.1459 12.7294 14.2093 12.8333H2.79149C2.8549 12.7294 2.91856 12.6194 2.98197 12.5031C3.68128 11.2211 4.33372 9.20604 4.33372 6.16658C4.33372 5.06152 4.77271 4.00171 5.55411 3.22031C6.33551 2.43891 7.39532 1.99992 8.50039 1.99992C9.60546 1.99992 10.6653 2.43891 11.4467 3.22031C12.2281 4.00171 12.6671 5.06152 12.6671 6.16658C12.6671 9.20604 13.3195 11.2211 14.0188 12.5031Z" fill="#000"/>
<path d="M7.77957 16.5818C7.54864 16.1837 7.0387 16.0482 6.6406 16.2791C6.24249 16.51 6.10697 17.02 6.33791 17.4181C6.55767 17.7969 6.8731 18.1114 7.25262 18.33C7.63215 18.5486 8.06243 18.6636 8.50041 18.6636C8.93838 18.6636 9.36867 18.5486 9.74819 18.33C10.1277 18.1114 10.4431 17.7969 10.6629 17.4181C10.8938 17.02 10.7583 16.51 10.3602 16.2791C9.96211 16.0482 9.45217 16.1837 9.22124 16.5818C9.14799 16.7081 9.04284 16.8129 8.91633 16.8857C8.78983 16.9586 8.6464 16.997 8.50041 16.997C8.35441 16.997 8.21099 16.9586 8.08448 16.8857C7.95797 16.8129 7.85283 16.7081 7.77957 16.5818Z" fill="#000"/>
</svg>
