<svg width="15" height="15" viewBox="0 0 15 15" fill="none" xmlns="http://www.w3.org/2000/svg">
<path d="M6.26036 2.00976C7.44352 1.74244 8.6814 1.86474 9.78938 2.35843C10.1047 2.49892 10.4742 2.35721 10.6146 2.04191C10.7551 1.72662 10.6134 1.35713 10.2981 1.21665C8.94393 0.613252 7.43097 0.463771 5.98488 0.790495C4.53879 1.11722 3.23705 1.90265 2.27382 3.02963C1.31058 4.15662 0.737449 5.56478 0.639903 7.04411C0.542356 8.52344 0.925621 9.99467 1.73254 11.2384C2.53945 12.4821 3.72678 13.4316 5.11745 13.9454C6.50812 14.4592 8.02761 14.5097 9.44931 14.0893C10.871 13.669 12.1187 12.8003 13.0064 11.6129C13.8941 10.4255 14.3742 8.98293 14.375 7.50039V6.92504C14.375 6.57986 14.0952 6.30004 13.75 6.30004C13.4048 6.30004 13.125 6.57986 13.125 6.92504V7.49968C13.1243 8.71267 12.7315 9.89293 12.0053 10.8645C11.279 11.836 10.2581 12.5467 9.09489 12.8906C7.93168 13.2345 6.68846 13.1932 5.55064 12.7729C4.41282 12.3525 3.44137 11.5756 2.78117 10.558C2.12096 9.54045 1.80738 8.33672 1.88719 7.12636C1.967 5.916 2.43593 4.76386 3.22403 3.84178C4.01214 2.9197 5.07719 2.27708 6.26036 2.00976Z" fill="#2D3648"/>
<path d="M14.1922 2.94177C14.4361 2.69757 14.4359 2.30184 14.1917 2.05788C13.9475 1.81393 13.5518 1.81413 13.3078 2.05833L7.49978 7.87219L6.06694 6.43935C5.82286 6.19528 5.42714 6.19528 5.18306 6.43935C4.93898 6.68343 4.93898 7.07916 5.18306 7.32324L7.05806 9.19824C7.17531 9.31549 7.33434 9.38134 7.50016 9.3813C7.66597 9.38125 7.82497 9.31532 7.94216 9.19802L14.1922 2.94177Z" fill="#2D3648"/>
</svg>
