<svg width="40" height="38" viewBox="0 0 40 38" fill="none" xmlns="http://www.w3.org/2000/svg">
<path fill-rule="evenodd" clip-rule="evenodd" d="M13.3333 0.666626C13.0219 0.666626 12.7304 0.752048 12.481 0.900739L0.839768 7.55289C0.320477 7.84962 0 8.40186 0 8.99996V35.6666C0 36.2607 0.316264 36.8099 0.830122 37.1081C1.34398 37.4063 1.97773 37.4085 2.49356 37.1137L13.3858 30.8896L25.8913 37.1423C26.1076 37.2562 26.3521 37.3239 26.6115 37.3324C26.6299 37.333 26.6483 37.3333 26.6667 37.3333C26.9781 37.3333 27.2696 37.2479 27.519 37.0992L39.1602 30.447C39.6795 30.1503 40 29.5981 40 29V2.33329C40 1.73918 39.6837 1.18998 39.1699 0.891776C38.656 0.593573 38.0223 0.591456 37.5064 0.886221L26.6142 7.11034L14.1087 0.85757C13.8809 0.737664 13.622 0.668936 13.3473 0.666683L13.3333 0.666626ZM28.3333 32.7947L36.6667 28.0328V5.20526L28.3333 9.96716V32.7947ZM25 10.03L15 5.03002V27.9699L25 32.9699V10.03ZM3.33333 9.96716L11.6667 5.20526V28.0327L3.33333 32.7947V9.96716Z" fill="#000"/>
</svg>
