<svg width="20" height="20" viewBox="0 0 20 20" fill="#000" xmlns="http://www.w3.org/2000/svg">
<path d="M3 0.5C3.41421 0.5 3.75 0.835786 3.75 1.25V6.5C3.75 6.91421 3.41421 7.25 3 7.25C2.58579 7.25 2.25 6.91421 2.25 6.5V1.25C2.25 0.835786 2.58579 0.5 3 0.5Z" fill="#000"/>
<path d="M3.75 10.25H5.25C5.66421 10.25 6 9.91421 6 9.5C6 9.08579 5.66421 8.75 5.25 8.75H0.75C0.335786 8.75 0 9.08579 0 9.5C0 9.91421 0.335786 10.25 0.75 10.25H2.25V14.75C2.25 15.1642 2.58579 15.5 3 15.5C3.41421 15.5 3.75 15.1642 3.75 14.75V10.25Z" fill="#000"/>
<path d="M9.75 8C9.75 7.58579 9.41421 7.25 9 7.25C8.58579 7.25 8.25 7.58579 8.25 8V14.75C8.25 15.1642 8.58579 15.5 9 15.5C9.41421 15.5 9.75 15.1642 9.75 14.75V8Z" fill="#000"/>
<path d="M9 0.5C9.41421 0.5 9.75 0.835786 9.75 1.25V4.25H11.25C11.6642 4.25 12 4.58579 12 5C12 5.41421 11.6642 5.75 11.25 5.75H6.75C6.33579 5.75 6 5.41421 6 5C6 4.58579 6.33579 4.25 6.75 4.25H8.25V1.25C8.25 0.835786 8.58579 0.5 9 0.5Z" fill="#000"/>
<path d="M17.25 10.25C17.6642 10.25 18 10.5858 18 11C18 11.4142 17.6642 11.75 17.25 11.75H15.75V14.75C15.75 15.1642 15.4142 15.5 15 15.5C14.5858 15.5 14.25 15.1642 14.25 14.75V11.75H12.75C12.3358 11.75 12 11.4142 12 11C12 10.5858 12.3358 10.25 12.75 10.25H17.25Z" fill="#000"/>
<path d="M15 0.5C15.4142 0.5 15.75 0.835786 15.75 1.25V8C15.75 8.41421 15.4142 8.75 15 8.75C14.5858 8.75 14.25 8.41421 14.25 8V1.25C14.25 0.835786 14.5858 0.5 15 0.5Z" fill="#000"/>
</svg>
