<svg width="15" height="13" viewBox="0 0 15 13" fill="none" xmlns="http://www.w3.org/2000/svg">
<path d="M7.49973 4.00001C7.8449 4.00001 8.12473 4.27983 8.12473 4.62501V7.12501C8.12473 7.47018 7.8449 7.75001 7.49973 7.75001C7.15455 7.75001 6.87473 7.47018 6.87473 7.12501V4.62501C6.87473 4.27983 7.15455 4.00001 7.49973 4.00001Z" fill="#000"/>
<path d="M7.49973 9.00001C7.15455 9.00001 6.87473 9.27983 6.87473 9.62501C6.87473 9.97019 7.15455 10.25 7.49973 10.25H7.50598C7.85115 10.25 8.13098 9.97019 8.13098 9.62501C8.13098 9.27983 7.85115 9.00001 7.50598 9.00001H7.49973Z" fill="#000"/>
<path fill-rule="evenodd" clip-rule="evenodd" d="M6.57987 0.426942C6.86067 0.268846 7.17749 0.185791 7.49974 0.185791C7.82199 0.185791 8.1388 0.268846 8.41961 0.426942C8.70041 0.585038 8.93573 0.812838 9.10286 1.08836L9.10466 1.09133L14.3984 9.92884L14.4035 9.93747C14.5672 10.221 14.6538 10.5424 14.6547 10.8698C14.6557 11.1972 14.5708 11.5192 14.4087 11.8036C14.2466 12.088 14.0128 12.325 13.7306 12.4911C13.4485 12.6571 13.1277 12.7464 12.8004 12.75L12.7935 12.75L2.19912 12.75C1.87174 12.7464 1.55101 12.6571 1.26885 12.4911C0.986674 12.325 0.752896 12.088 0.590769 11.8036C0.428642 11.5192 0.343817 11.1972 0.344734 10.8698C0.345651 10.5424 0.432277 10.221 0.595994 9.93747L0.601071 9.92884L5.89482 1.09134L6.43098 1.4125L5.89661 1.08836C6.06374 0.812838 6.29906 0.585038 6.57987 0.426942ZM6.96612 1.7354L1.67642 10.5661C1.62318 10.6598 1.59503 10.7656 1.59473 10.8733C1.59442 10.9825 1.6227 11.0898 1.67674 11.1846C1.73078 11.2794 1.80871 11.3584 1.90277 11.4137C1.996 11.4686 2.10186 11.4983 2.20999 11.5H12.7895C12.8976 11.4983 13.0035 11.4686 13.0967 11.4137C13.1908 11.3584 13.2687 11.2794 13.3227 11.1846C13.3768 11.0898 13.4051 10.9825 13.4047 10.8733C13.4044 10.7656 13.3763 10.6598 13.3231 10.5662L8.03411 1.73665L8.03336 1.7354C7.97769 1.64412 7.89954 1.56864 7.80636 1.51617C7.71276 1.46348 7.60716 1.43579 7.49974 1.43579C7.39232 1.43579 7.28672 1.46348 7.19311 1.51617C7.09994 1.56864 7.02178 1.64412 6.96612 1.7354Z" fill="#000"/>
</svg>
