<svg width="23" height="21" viewBox="0 0 23 21" fill="none" xmlns="http://www.w3.org/2000/svg">
<path fill-rule="evenodd" clip-rule="evenodd" d="M10.0128 3.36249C8.1934 1.54307 5.24355 1.54307 3.42413 3.36249C1.60472 5.1819 1.60472 8.13176 3.42413 9.95118L4.20384 10.7309C4.21658 10.7436 4.22895 10.7567 4.24093 10.77L11.4996 18.0287L18.758 10.7703C18.7701 10.7569 18.7825 10.7438 18.7954 10.7309L19.5751 9.95118C21.3945 8.13176 21.3945 5.1819 19.5751 3.36249C17.7557 1.54307 14.8059 1.54307 12.9864 3.36249L12.2067 4.14219C11.8162 4.53272 11.183 4.53272 10.7925 4.14219L10.0128 3.36249ZM20.2481 12.1067C20.236 12.1201 20.2236 12.1332 20.2107 12.1461L12.2078 20.149C12.0202 20.3366 11.7657 20.442 11.5004 20.4419C11.5002 20.4419 11.5007 20.4419 11.5004 20.4419C11.5002 20.4419 11.4991 20.4419 11.4988 20.4419C11.2335 20.442 10.9791 20.3366 10.7915 20.149L2.7886 12.1461C2.7757 12.1332 2.76323 12.1201 2.75118 12.1067L2.00992 11.3654C-0.590544 8.76493 -0.590548 4.54874 2.00992 1.94827C4.61038 -0.652191 8.82657 -0.652191 11.427 1.94827L11.4996 2.02087L11.5722 1.94827C14.1727 -0.652191 18.3889 -0.652191 20.9893 1.94827C23.5898 4.54874 23.5898 8.76493 20.9893 11.3654L20.2481 12.1067Z" fill="#000"/>
</svg>
