<svg width="29" height="29" viewBox="0 0 29 29" fill="none" xmlns="http://www.w3.org/2000/svg">
<path d="M15.792 1.58329C15.792 0.869925 15.2137 0.291626 14.5003 0.291626C13.787 0.291626 13.2087 0.869925 13.2087 1.58329V6.74996C13.2087 7.46333 13.787 8.04163 14.5003 8.04163C15.2137 8.04163 15.792 7.46333 15.792 6.74996V1.58329Z" fill="#000"/>
<path d="M15.792 22.25C15.792 21.5366 15.2137 20.9583 14.5003 20.9583C13.787 20.9583 13.2087 21.5366 13.2087 22.25V27.4166C13.2087 28.13 13.787 28.7083 14.5003 28.7083C15.2137 28.7083 15.792 28.13 15.792 27.4166V22.25Z" fill="#000"/>
<path d="M4.45481 4.45452C4.95924 3.95009 5.77707 3.95009 6.2815 4.45452L9.93692 8.10994C10.4413 8.61437 10.4413 9.4322 9.93692 9.93663C9.43249 10.4411 8.61465 10.4411 8.11022 9.93663L4.45481 6.28121C3.95038 5.77679 3.95038 4.95895 4.45481 4.45452Z" fill="#000"/>
<path d="M20.8903 19.0633C20.3859 18.5589 19.5681 18.5589 19.0636 19.0633C18.5592 19.5677 18.5592 20.3856 19.0636 20.89L22.719 24.5454C23.2235 25.0498 24.0413 25.0498 24.5457 24.5454C25.0502 24.041 25.0502 23.2231 24.5457 22.7187L20.8903 19.0633Z" fill="#000"/>
<path d="M0.291992 14.5C0.291992 13.7866 0.870291 13.2083 1.58366 13.2083H6.75033C7.46369 13.2083 8.04199 13.7866 8.04199 14.5C8.04199 15.2133 7.46369 15.7916 6.75033 15.7916H1.58366C0.870291 15.7916 0.291992 15.2133 0.291992 14.5Z" fill="#000"/>
<path d="M22.2503 13.2083C21.537 13.2083 20.9587 13.7866 20.9587 14.5C20.9587 15.2133 21.537 15.7916 22.2503 15.7916H27.417C28.1304 15.7916 28.7087 15.2133 28.7087 14.5C28.7087 13.7866 28.1304 13.2083 27.417 13.2083H22.2503Z" fill="#000"/>
<path d="M9.93692 19.0633C10.4413 19.5677 10.4413 20.3856 9.93692 20.89L6.2815 24.5454C5.77707 25.0498 4.95923 25.0498 4.45481 24.5454C3.95038 24.041 3.95038 23.2231 4.45481 22.7187L8.11022 19.0633C8.61465 18.5589 9.43249 18.5589 9.93692 19.0633Z" fill="#000"/>
<path d="M24.5457 6.28121C25.0502 5.77679 25.0502 4.95895 24.5457 4.45452C24.0413 3.95009 23.2235 3.95009 22.719 4.45452L19.0636 8.10994C18.5592 8.61437 18.5592 9.4322 19.0636 9.93663C19.5681 10.4411 20.3859 10.4411 20.8903 9.93663L24.5457 6.28121Z" fill="#000"/>
</svg>
