<svg width="20" height="20" viewBox="0 0 21 23" fill="#000" xmlns="http://www.w3.org/2000/svg">
<path fill-rule="evenodd" clip-rule="evenodd" d="M10.5003 5.75C8.38323 5.75 6.66699 7.46624 6.66699 9.58333C6.66699 11.7004 8.38323 13.4167 10.5003 13.4167C12.6174 13.4167 14.3337 11.7004 14.3337 9.58333C14.3337 7.46624 12.6174 5.75 10.5003 5.75ZM8.58366 9.58333C8.58366 8.52479 9.44178 7.66667 10.5003 7.66667C11.5589 7.66667 12.417 8.52479 12.417 9.58333C12.417 10.6419 11.5589 11.5 10.5003 11.5C9.44178 11.5 8.58366 10.6419 8.58366 9.58333Z" fill="#000"/>
<path fill-rule="evenodd" clip-rule="evenodd" d="M9.96822 22.8387C9.9685 22.8389 9.96874 22.839 10.5003 22.0417L9.96822 22.8387C10.2901 23.0533 10.71 23.0536 11.0319 22.839L10.5003 22.0417C11.0319 22.839 11.0316 22.8392 11.0319 22.839L11.0352 22.8369L11.0416 22.8326L11.0635 22.8177C11.0822 22.8051 11.1088 22.7869 11.1428 22.7633C11.2109 22.7161 11.3087 22.6475 11.432 22.5584C11.6786 22.3803 12.0276 22.1205 12.445 21.7881C13.2782 21.1246 14.3917 20.166 15.5085 18.9872C17.7029 16.6709 20.0837 13.3227 20.0837 9.58333C20.0837 7.04168 19.074 4.60412 17.2768 2.80689C15.4795 1.00967 13.042 0 10.5003 0C7.95867 0 5.52111 1.00967 3.72389 2.80689C1.92666 4.60412 0.916992 7.04168 0.916992 9.58333C0.916992 13.3227 3.29774 16.6709 5.49212 18.9872C6.60891 20.166 7.72244 21.1246 8.5557 21.7881C8.97309 22.1205 9.3221 22.3803 9.56863 22.5584C9.69194 22.6475 9.78975 22.7161 9.85782 22.7633C9.89186 22.7869 9.91847 22.8051 9.93713 22.8177L9.95909 22.8326L9.96548 22.8369L9.96822 22.8387ZM5.07917 4.16218C6.51695 2.7244 8.467 1.91667 10.5003 1.91667C12.5337 1.91667 14.4837 2.7244 15.9215 4.16218C17.3593 5.59996 18.167 7.55001 18.167 9.58333C18.167 12.5523 16.2352 15.4332 14.1171 17.669C13.0777 18.7662 12.0349 19.6645 11.251 20.2887C10.9593 20.521 10.7044 20.7146 10.5003 20.8654C10.2962 20.7146 10.0414 20.521 9.74964 20.2887C8.96572 19.6645 7.923 18.7662 6.88353 17.669C4.76541 15.4332 2.83366 12.5523 2.83366 9.58333C2.83366 7.55001 3.64139 5.59996 5.07917 4.16218Z" fill="#000"/>
</svg>
