<svg width="20" height="20" viewBox="0 0 20 20" fill="none" xmlns="http://www.w3.org/2000/svg">
<g clip-path="url(#clip0_422_4958)">
<path fill-rule="evenodd" clip-rule="evenodd" d="M7.6395 14.3547C5.73083 12.8926 4.5 10.59 4.5 8C4.5 3.58172 8.08172 0 12.5 0C16.9183 0 20.5 3.58172 20.5 8C20.5 10.5895 19.2696 12.8917 17.3616 14.3538L18.4913 22.8685C18.5418 23.2491 18.3699 23.6251 18.049 23.8358C17.728 24.0466 17.3148 24.055 16.9855 23.8575L12.5 21.1662L8.0145 23.8575C7.68522 24.0551 7.2719 24.0466 6.95096 23.8358C6.63002 23.625 6.45815 23.249 6.50871 22.8683L7.6395 14.3547ZM6.5 8C6.5 4.68629 9.18629 2 12.5 2C15.8137 2 18.5 4.68629 18.5 8C18.5 10.0815 17.4401 11.9154 15.8305 12.9915C15.7735 13.021 15.7198 13.0558 15.6702 13.0951C14.7503 13.6686 13.6639 14 12.5 14C9.18629 14 6.5 11.3137 6.5 8ZM15.4861 15.4241C14.5634 15.7956 13.5556 16 12.5 16C11.4448 16 10.4373 15.7957 9.51497 15.4245L8.76444 21.0751L11.9855 19.1425C12.3022 18.9525 12.6978 18.9525 13.0145 19.1425L16.2359 21.0753L15.4861 15.4241Z" fill="white"/>
</g>
<defs>
<clipPath id="clip0_422_4958">
<rect width="20" height="20" fill="white" transform="translate(0.5)"/>
</clipPath>
</defs>
</svg>
