<svg width="25" height="25" viewBox="0 0 25 25" fill="#000" xmlns="http://www.w3.org/2000/svg">
<path fill-rule="evenodd" clip-rule="evenodd" d="M9.5 0C6.73858 0 4.5 2.23858 4.5 5C4.5 7.76142 6.73858 10 9.5 10C12.2614 10 14.5 7.76142 14.5 5C14.5 2.23858 12.2614 0 9.5 0ZM6.5 5C6.5 3.34315 7.84315 2 9.5 2C11.1569 2 12.5 3.34315 12.5 5C12.5 6.65685 11.1569 8 9.5 8C7.84315 8 6.5 6.65685 6.5 5Z" fill="#000"/>
<path d="M5.5 12C4.17392 12 2.90215 12.5268 1.96447 13.4645C1.02678 14.4021 0.5 15.6739 0.5 17V19C0.5 19.5523 0.947715 20 1.5 20C2.05228 20 2.5 19.5523 2.5 19V17C2.5 16.2043 2.81607 15.4413 3.37868 14.8787C3.94129 14.3161 4.70435 14 5.5 14H13.5C14.2956 14 15.0587 14.3161 15.6213 14.8787C16.1839 15.4413 16.5 16.2044 16.5 17V19C16.5 19.5523 16.9477 20 17.5 20C18.0523 20 18.5 19.5523 18.5 19V17C18.5 15.6739 17.9732 14.4021 17.0355 13.4645C16.0979 12.5268 14.8261 12 13.5 12H5.5Z" fill="#000"/>
</svg>
