<svg width="20" height="20" viewBox="0 0 20 20" fill="none" xmlns="http://www.w3.org/2000/svg">
<path d="M7.4023 0.958514C7.73208 0.628738 8.26675 0.628738 8.59653 0.958514L11.9743 4.33629C12.3041 4.66607 12.3041 5.20074 11.9743 5.53052C11.6445 5.86029 11.1099 5.86029 10.7801 5.53052L8.84386 3.5943L8.84386 12.5334C8.84386 12.9998 8.46579 13.3778 7.99942 13.3778C7.53304 13.3778 7.15497 12.9998 7.15497 12.5334L7.15497 3.5943L5.21875 5.53052C4.88897 5.86029 4.3543 5.86029 4.02452 5.53052C3.69475 5.20074 3.69475 4.66607 4.02452 4.33629L7.4023 0.958514Z" fill="#000"/>
<path d="M1.24386 9.15563C1.71023 9.15563 2.0883 9.5337 2.0883 10.0001V16.7556C2.0883 16.9796 2.17727 17.1944 2.33564 17.3527C2.494 17.5111 2.70879 17.6001 2.93275 17.6001H13.0661C13.29 17.6001 13.5048 17.5111 13.6632 17.3527C13.8216 17.1944 13.9105 16.9796 13.9105 16.7556V10.0001C13.9105 9.5337 14.2886 9.15563 14.755 9.15563C15.2213 9.15563 15.5994 9.5337 15.5994 10.0001V16.7556C15.5994 17.4275 15.3325 18.0719 14.8574 18.547C14.3823 19.0221 13.738 19.289 13.0661 19.289H2.93275C2.26087 19.289 1.6165 19.0221 1.14141 18.547C0.666318 18.0719 0.399414 17.4275 0.399414 16.7556V10.0001C0.399414 9.5337 0.777485 9.15563 1.24386 9.15563Z" fill="#000"/>
</svg>
