<svg width="24" height="23" viewBox="0 0 24 23" fill="none" xmlns="http://www.w3.org/2000/svg">
<path fill-rule="evenodd" clip-rule="evenodd" d="M12.9711 0.687076C12.7886 0.31733 12.412 0.083252 11.9997 0.083252C11.5874 0.083252 11.2108 0.31733 11.0283 0.687076L7.93259 6.95859L1.00969 7.97048C0.601752 8.0301 0.263015 8.31611 0.135856 8.70828C0.00869696 9.10046 0.115159 9.53082 0.410495 9.81847L5.41897 14.6967L4.23696 21.5885C4.16725 21.9949 4.33435 22.4057 4.66799 22.6481C5.00164 22.8904 5.44395 22.9224 5.80894 22.7304L11.9997 19.4748L18.1905 22.7304C18.5555 22.9224 18.9978 22.8904 19.3314 22.6481C19.6651 22.4057 19.8322 21.9949 19.7624 21.5885L18.5804 14.6967L23.5889 9.81847C23.8843 9.53082 23.9907 9.10046 23.8636 8.70828C23.7364 8.31611 23.3977 8.0301 22.9897 7.97048L16.0668 6.95859L12.9711 0.687076ZM9.62364 8.42776L11.9997 3.61411L14.3758 8.42776C14.5334 8.74718 14.8381 8.96868 15.1905 9.0202L20.5056 9.79707L16.6605 13.5422C16.405 13.7911 16.2883 14.1498 16.3486 14.5014L17.2558 19.7909L12.5039 17.2919C12.1883 17.1259 11.8111 17.1259 11.4955 17.2919L6.74357 19.7909L7.65078 14.5014C7.71108 14.1498 7.59445 13.7911 7.33892 13.5422L3.49382 9.79707L8.80889 9.0202C9.16135 8.96868 9.46597 8.74718 9.62364 8.42776Z" fill="#000"/>
</svg>
