<svg width="29" height="29" viewBox="0 0 29 29" fill="none" xmlns="http://www.w3.org/2000/svg">
<path d="M14.5003 8.04163C15.2137 8.04163 15.792 8.61993 15.792 9.33329V14.5C15.792 15.2133 15.2137 15.7916 14.5003 15.7916C13.787 15.7916 13.2087 15.2133 13.2087 14.5V9.33329C13.2087 8.61993 13.787 8.04163 14.5003 8.04163Z" fill="#000"/>
<path d="M14.5003 18.375C13.787 18.375 13.2087 18.9533 13.2087 19.6666C13.2087 20.38 13.787 20.9583 14.5003 20.9583H14.5132C15.2266 20.9583 15.8049 20.38 15.8049 19.6666C15.8049 18.9533 15.2266 18.375 14.5132 18.375H14.5003Z" fill="#000"/>
<path fill-rule="evenodd" clip-rule="evenodd" d="M0.291992 14.5C0.291992 6.65291 6.65328 0.291626 14.5003 0.291626C22.3474 0.291626 28.7087 6.65291 28.7087 14.5C28.7087 22.347 22.3474 28.7083 14.5003 28.7083C6.65328 28.7083 0.291992 22.347 0.291992 14.5ZM14.5003 2.87496C8.08002 2.87496 2.87533 8.07965 2.87533 14.5C2.87533 20.9203 8.08002 26.125 14.5003 26.125C20.9206 26.125 26.1253 20.9203 26.1253 14.5C26.1253 8.07965 20.9206 2.87496 14.5003 2.87496Z" fill="#000"/>
</svg>
