<?xml version="1.0" encoding="iso-8859-1"?>
<!-- Uploaded to: SVG Repo, www.svgrepo.com, Generator: SVG Repo Mixer Tools -->
<svg height="800px" width="800px" version="1.1" id="Layer_1" xmlns="http://www.w3.org/2000/svg" xmlns:xlink="http://www.w3.org/1999/xlink" 
	 viewBox="0 0 285.161 285.161" xml:space="preserve">
<g>
	<path style="fill:#1D1D1B;" d="M283.873,63.673c0.764,0.241,1.326,0.884,1.286,1.889c-1.889,44.244-18.807,83.265-47.459,116.739
		c-26.965,31.506-58.149,43.441-99.5,40.708c-37.373-2.492-73.66-15.592-97.29-45.812c-24.955-31.988-39.181-73.5-40.909-113.846
		c-0.04-1.447,1.326-1.848,2.331-1.406c93.231-0.241,186.261,3.014,279.572,0.281C282.989,62.227,283.632,62.87,283.873,63.673z
		 M280.86,66.607c-4.903,0.161-9.805,0.281-14.708,0.442c0.161,0.241,0.281,0.563,0.281,0.924
		c-0.04,16.757-2.934,33.676-8.399,49.589c-16.436,47.7-55.939,86.721-109.385,87.685c-34.479,0.603-64.659-8.519-88.087-34.72
		c-25.719-28.733-37.574-67.11-43.24-104.563c-4.581-0.321-9.203-0.522-13.784-0.844c3.215,28.813,10.328,57.787,23.79,83.546
		c-0.442-1.889-0.563-3.858-0.321-5.827c0.08-0.924,1.527-0.965,1.447,0c-0.321,3.898,0.804,7.394,3.014,10.609
		c0.442,0.683-0.201,1.246-0.844,1.206c4.461,7.796,9.524,15.271,15.311,22.303c22.785,27.608,57.466,39.503,92.266,41.753
		c39.744,2.532,70.285-9.162,96.204-39.703c17.441-20.535,30.22-42.918,37.975-67.391h0.04
		C276.962,97.309,279.775,82.36,280.86,66.607z M262.897,67.129c-1.969,0.04-3.978,0.121-5.948,0.161
		c6.832,28.451-12.578,68.959-29.858,90.418c-18.084,22.544-44.204,36.408-73.098,38.056c-34.318,1.969-64.257-6.47-86.761-33.073
		c-22.866-26.965-34.6-62.047-41.351-96.285c-2.09-0.12-4.179-0.201-6.269-0.321c7.635,33.635,16.074,67.271,37.654,94.999
		c21.982,28.21,49.991,39.864,85.234,40.588c72.214,1.406,119.311-65.985,120.155-133.698
		C262.655,67.652,262.776,67.37,262.897,67.129z M220.541,160.038c18.646-21.178,40.186-63.132,32.872-92.668
		c-74.866,2.09-150.455,3.335-225.241-0.844c7.515,28.371,14.949,56.903,31.586,81.617c19.771,29.295,44.727,43.441,79.969,44.887
		C171.233,194.317,199.604,183.788,220.541,160.038z"/>
	<path style="fill:#33AA6C;" d="M266.152,67.049c4.903-0.161,9.805-0.281,14.708-0.442c-1.085,15.753-3.898,30.702-8.439,45.008
		h-0.04l-2.733-0.844c0.241-0.844,0.362-1.728,0.442-2.612c0.08-0.924-1.206-0.964-1.487-0.201c-1.165,3.054-2.25,6.068-4.099,8.76
		l-0.924-0.482c0.643-1.205,1.286-2.411,1.929-3.657c0.402-0.844-0.804-1.567-1.286-0.764c-1.246,2.17-2.411,4.34-3.536,6.55
		l-2.652-0.804c5.465-15.914,8.359-32.832,8.399-49.589C266.433,67.611,266.312,67.29,266.152,67.049z"/>
	<path style="fill:#33AA6C;" d="M269.648,110.771l2.733,0.844c-7.756,24.473-20.535,46.857-37.975,67.391
		c-25.92,30.541-56.461,42.235-96.204,39.703c-34.801-2.25-69.481-14.145-92.266-41.753c-5.787-7.033-10.85-14.507-15.311-22.303
		c0.643,0.04,1.286-0.522,0.844-1.206c-2.21-3.215-3.335-6.711-3.014-10.609c0.08-0.965-1.366-0.924-1.447,0
		c-0.241,1.969-0.121,3.938,0.321,5.827C13.866,122.907,6.753,93.933,3.538,65.12c4.581,0.321,9.202,0.522,13.784,0.844
		c5.666,37.453,17.521,75.83,43.24,104.563c23.428,26.201,53.608,35.323,88.087,34.72c53.447-0.964,92.949-39.985,109.385-87.685
		l2.652,0.804c-0.442,0.844,0.844,1.607,1.326,0.764c0.522-0.964,1.045-1.929,1.567-2.893l0.924,0.482
		c-0.643,1.005,0.884,1.849,1.567,0.924C267.679,115.513,269.005,113.262,269.648,110.771z M205.19,201.751
		c0.804-0.884-0.402-2.13-1.326-1.326c-2.21,2.009-4.702,3.496-7.635,4.219c-1.246,0.322-0.723,2.21,0.522,1.929
		C200.006,205.81,202.94,204.243,205.19,201.751z M39.103,159.034c0.804,0.804,1.929-0.362,1.206-1.206
		c-3.456-3.978-5.988-8.6-7.394-13.703c-0.281-0.884-1.567-0.522-1.407,0.402C32.432,150.153,35.004,155.096,39.103,159.034z"/>
	<path style="fill:#1D1D1B;" d="M268.603,107.958c0.281-0.764,1.567-0.723,1.487,0.201c-0.08,0.884-0.201,1.768-0.442,2.612
		c-0.643,2.492-1.969,4.742-3.577,6.872c-0.683,0.924-2.21,0.08-1.567-0.924C266.353,114.026,267.438,111.012,268.603,107.958z"/>
	<path style="fill:#1D1D1B;" d="M264.223,111.816c0.482-0.804,1.688-0.08,1.286,0.764c-0.643,1.246-1.286,2.451-1.929,3.657
		c-0.522,0.965-1.045,1.929-1.567,2.893c-0.482,0.844-1.768,0.08-1.326-0.764C261.812,116.156,262.977,113.986,264.223,111.816z"/>
	<path style="fill:#F6F6F6;" d="M256.949,67.29c1.969-0.04,3.978-0.121,5.948-0.161c-0.121,0.241-0.241,0.522-0.241,0.844
		c-0.844,67.713-47.941,135.104-120.155,133.698c-35.243-0.723-63.252-12.377-85.234-40.588
		c-21.58-27.728-30.019-61.364-37.654-94.999c2.09,0.121,4.179,0.201,6.269,0.321c6.751,34.238,18.485,69.32,41.351,96.285
		c22.504,26.603,52.442,35.042,86.761,33.073c28.894-1.648,55.014-15.512,73.098-38.056
		C244.371,136.249,263.781,95.741,256.949,67.29z"/>
	<path style="fill:#E94B59;" d="M253.413,67.37c7.314,29.536-14.226,71.49-32.872,92.668c-20.937,23.75-49.308,34.278-80.813,32.992
		c-35.243-1.447-60.198-15.592-79.969-44.887c-16.638-24.714-24.072-53.245-31.587-81.617
		C102.958,70.706,178.547,69.46,253.413,67.37z M249.595,82.279c1.165-2.974,1.125-6.028,0.04-9.042
		c-0.362-0.965-1.929-0.603-1.608,0.442c0.804,2.693,0.643,5.425-0.241,8.077C247.385,82.962,249.153,83.364,249.595,82.279z
		 M229.583,139.062c0.281-1.246-1.567-1.768-1.929-0.522c-0.723,2.612-1.849,5.063-3.416,7.274
		c-0.723,1.125,1.005,2.049,1.768,1.045C227.814,144.487,228.98,141.955,229.583,139.062z M224.921,103.618
		c0.563-1.085-0.924-1.969-1.607-0.964c-2.492,3.777-5.747,6.992-9.725,9.203c-1.005,0.563-0.121,1.969,0.884,1.487
		C219.014,111.293,222.631,108.038,224.921,103.618z M214.835,103.859c0.281-0.965-1.246-1.728-1.688-0.723
		c-1.085,2.572-2.974,4.501-5.787,5.063c-0.723,0.121-0.563,1.326,0.201,1.286C210.936,109.284,213.991,107.194,214.835,103.859z
		 M209.168,99.72c1.206-4.461-1.567-8.841-3.617-12.578c-0.362-0.643-1.045-0.884-1.688-0.844c-0.442-0.402-1.206-0.603-1.648-0.04
		c-3.094,3.818-8.64,17.2,0.08,18.405C205.511,105.105,208.365,102.734,209.168,99.72z M177.864,130.462
		c0.442-3.737-1.969-6.711-4.34-9.283c-0.161-0.201-0.442-0.281-0.683-0.362c-0.281-0.643-1.406-0.884-1.848-0.12
		c-1.768,3.094-3.818,6.992-3.175,10.689c0.442,2.652,2.492,4.541,5.264,4.219C175.734,135.244,177.582,133.074,177.864,130.462z
		 M150.819,166.508c0.241-1.848-0.362-3.617-1.085-5.345c-0.844-2.13-1.607-4.541-3.215-6.229c-0.08-0.08-0.201-0.08-0.322-0.161
		c0-0.844-1.286-1.165-1.808-0.402c-2.853,3.858-7.274,16.155,1.045,17.079C148.327,171.773,150.457,169.201,150.819,166.508z
		 M148.689,181.739c0.844-0.362,0.402-1.768-0.442-1.688c-2.652,0.281-5.184,0.04-7.394-1.688c-1.085-0.844-2.692,0.643-1.567,1.607
		C141.938,182.181,145.434,183.105,148.689,181.739z M144.55,100.282c0.442-3.978-2.652-7.314-3.175-11.172
		c-0.161-0.924-1.005-1.286-1.808-1.206c0.04-0.924-1.085-1.447-1.648-0.603c-2.773,4.099-9.685,19.611,0.964,18.847
		C141.978,105.908,144.228,103.336,144.55,100.282z M131.208,110.972c0.924,0.04,1.165-1.487,0.201-1.648
		c-2.049-0.442-3.778-1.567-4.662-3.536c-0.321-0.804-1.648-0.241-1.366,0.603C126.225,109.043,128.315,110.891,131.208,110.972z
		 M129.962,144.527c0.241-0.804-0.884-1.527-1.447-0.844c-1.768,2.09-3.496,4.139-6.108,5.224c-1.246,0.563-0.764,2.612,0.563,2.13
		C126.105,149.872,128.958,147.822,129.962,144.527z M126.426,116.035c1.246,0.281,1.728-1.487,0.522-1.889
		c-2.532-0.804-4.461-2.572-5.224-5.144c-0.281-1.005-1.688-0.603-1.527,0.402C120.84,112.66,123.171,115.272,126.426,116.035z
		 M124.979,139.825c0.04-0.804-1.045-1.005-1.447-0.402c-1.326,1.969-2.331,3.777-4.42,5.063c-1.125,0.723-0.121,2.411,1.085,1.808
		C122.649,145.049,124.899,142.718,124.979,139.825z M112.24,139.262c7.876-0.683,5.345-12.016,0.241-14.708
		c-0.281-0.161-0.563-0.161-0.844-0.161c0.201-1.125-1.326-1.648-1.969-0.683C107.097,127.488,103.962,140.026,112.24,139.262z
		 M88.531,100.483c0.723-4.461-2.009-8.64-2.934-12.859c-0.12-0.522-0.442-0.804-0.884-1.005c0.04-0.08,0.08-0.201,0.08-0.281
		c0.08-0.603-0.603-1.165-1.085-0.643c-3.215,3.577-9.122,18.727-0.683,19.972C86.12,106.149,88.129,103.136,88.531,100.483z
		 M72.497,153.086c0.844,0.563,1.929-0.804,1.125-1.447c-2.652-2.049-4.581-4.782-5.586-7.997c-0.322-1.125-2.009-0.683-1.768,0.482
		C67.152,147.902,69.282,150.916,72.497,153.086z M66.991,104.341c0.723,0.442,1.567-0.603,0.924-1.206
		c-1.607-1.487-2.572-3.576-2.09-5.746c0.241-1.165-1.447-1.648-1.728-0.482C63.335,99.84,64.299,102.774,66.991,104.341z
		 M63.455,106.592c0.563,0.482,1.407-0.321,0.844-0.884c-1.487-1.527-2.652-3.215-3.416-5.224c-0.241-0.683-1.366-0.402-1.125,0.321
		C60.522,103.055,61.687,104.984,63.455,106.592z M52.806,82.922c0.924,0.121,1.085-1.366,0.201-1.607
		c-1.969-0.563-3.898-0.522-5.948-0.161c-0.884,0.121-0.683,1.648,0.241,1.567C49.149,82.56,50.957,82.681,52.806,82.922z
		 M51.198,79.024c0.482,0.201,0.844-0.643,0.362-0.884c-2.331-1.165-4.702-1.648-7.274-1.688c-0.643,0-0.643,1.005,0,1.045
		C46.698,77.537,48.948,78.1,51.198,79.024z"/>
	<path style="fill:#1D1D1B;" d="M249.635,73.237c1.085,3.014,1.125,6.068-0.04,9.042c-0.442,1.085-2.21,0.683-1.808-0.522
		c0.884-2.652,1.045-5.385,0.241-8.077C247.706,72.635,249.274,72.273,249.635,73.237z"/>
	<path style="fill:#1D1D1B;" d="M227.654,138.539c0.362-1.246,2.21-0.723,1.929,0.522c-0.603,2.893-1.768,5.425-3.577,7.796
		c-0.764,1.005-2.492,0.08-1.768-1.045C225.805,143.603,226.93,141.151,227.654,138.539z"/>
	<path style="fill:#1D1D1B;" d="M223.314,102.653c0.683-1.005,2.17-0.121,1.607,0.964c-2.291,4.421-5.907,7.675-10.448,9.725
		c-1.005,0.482-1.889-0.924-0.884-1.487C217.567,109.646,220.822,106.431,223.314,102.653z"/>
	<path style="fill:#1D1D1B;" d="M213.147,103.136c0.442-1.005,1.969-0.241,1.688,0.723c-0.844,3.335-3.898,5.425-7.274,5.626
		c-0.764,0.04-0.924-1.165-0.201-1.286C210.173,107.636,212.062,105.707,213.147,103.136z"/>
	<path style="fill:#1D1D1B;" d="M205.552,87.142c2.049,3.737,4.822,8.118,3.617,12.578c-0.804,3.014-3.657,5.385-6.872,4.943
		c-8.72-1.206-3.175-14.587-0.08-18.405c0.442-0.563,1.206-0.362,1.648,0.04C204.507,86.258,205.19,86.499,205.552,87.142z"/>
	<path style="fill:#1D1D1B;" d="M203.864,200.425c0.924-0.804,2.13,0.442,1.326,1.326c-2.25,2.492-5.184,4.059-8.439,4.822
		c-1.246,0.281-1.768-1.607-0.522-1.929C199.162,203.921,201.654,202.434,203.864,200.425z"/>
	<path style="fill:#1D1D1B;" d="M173.524,121.179c2.371,2.572,4.782,5.546,4.34,9.283c-0.281,2.612-2.13,4.782-4.782,5.144
		c-2.773,0.322-4.822-1.567-5.264-4.219c-0.643-3.697,1.406-7.595,3.175-10.689c0.442-0.764,1.567-0.522,1.848,0.12
		C173.082,120.898,173.363,120.978,173.524,121.179z"/>
	<path style="fill:#1D1D1B;" d="M149.734,161.164c0.723,1.728,1.326,3.496,1.085,5.345c-0.362,2.693-2.492,5.264-5.385,4.943
		c-8.318-0.924-3.898-13.221-1.045-17.079c0.522-0.764,1.808-0.442,1.808,0.402c0.121,0.08,0.241,0.08,0.322,0.161
		C148.126,156.623,148.89,159.034,149.734,161.164z"/>
	<path style="fill:#1D1D1B;" d="M148.247,180.051c0.844-0.08,1.286,1.326,0.442,1.688c-3.255,1.366-6.751,0.442-9.403-1.768
		c-1.125-0.964,0.482-2.451,1.567-1.607C143.063,180.091,145.595,180.332,148.247,180.051z"/>
	<path style="fill:#1D1D1B;" d="M141.375,89.111c0.522,3.858,3.617,7.193,3.175,11.172c-0.322,3.054-2.572,5.626-5.666,5.867
		c-10.649,0.764-3.737-14.748-0.964-18.847c0.563-0.844,1.688-0.321,1.648,0.603C140.37,87.825,141.214,88.186,141.375,89.111z"/>
	<path style="fill:#1D1D1B;" d="M131.409,109.324c0.964,0.161,0.723,1.688-0.201,1.648c-2.893-0.08-4.983-1.929-5.827-4.581
		c-0.281-0.844,1.045-1.407,1.366-0.603C127.632,107.757,129.36,108.882,131.409,109.324z"/>
	<path style="fill:#1D1D1B;" d="M128.516,143.683c0.563-0.683,1.688,0.04,1.447,0.844c-1.005,3.295-3.858,5.345-6.992,6.51
		c-1.326,0.482-1.808-1.567-0.563-2.13C125.02,147.822,126.748,145.773,128.516,143.683z"/>
	<path style="fill:#1D1D1B;" d="M126.948,114.146c1.206,0.402,0.723,2.17-0.522,1.889c-3.255-0.764-5.586-3.376-6.229-6.631
		c-0.161-1.005,1.246-1.407,1.527-0.402C122.488,111.575,124.417,113.343,126.948,114.146z"/>
	<path style="fill:#1D1D1B;" d="M123.533,139.423c0.402-0.603,1.487-0.402,1.447,0.402c-0.08,2.893-2.331,5.224-4.782,6.47
		c-1.206,0.603-2.21-1.085-1.085-1.808C121.202,143.201,122.207,141.392,123.533,139.423z"/>
	<path style="fill:#1D1D1B;" d="M112.482,124.555c5.104,2.692,7.635,14.025-0.241,14.708c-8.278,0.764-5.144-11.774-2.572-15.552
		c0.643-0.965,2.17-0.442,1.969,0.683C111.919,124.394,112.2,124.394,112.482,124.555z"/>
	<path style="fill:#1D1D1B;" d="M85.597,87.624c0.924,4.219,3.657,8.399,2.934,12.859c-0.402,2.652-2.411,5.666-5.505,5.184
		c-8.439-1.246-2.532-16.396,0.683-19.972c0.482-0.522,1.165,0.04,1.085,0.643c0,0.08-0.04,0.201-0.08,0.281
		C85.155,86.82,85.477,87.101,85.597,87.624z"/>
	<path style="fill:#1D1D1B;" d="M73.622,151.64c0.804,0.643-0.281,2.009-1.125,1.447c-3.215-2.17-5.345-5.184-6.229-8.961
		c-0.241-1.165,1.447-1.607,1.768-0.482C69.041,146.858,70.97,149.59,73.622,151.64z"/>
	<path style="fill:#1D1D1B;" d="M67.916,103.136c0.643,0.603-0.201,1.648-0.924,1.206c-2.692-1.567-3.657-4.501-2.893-7.434
		c0.281-1.165,1.969-0.683,1.728,0.482C65.344,99.559,66.308,101.649,67.916,103.136z"/>
	<path style="fill:#1D1D1B;" d="M64.299,105.707c0.563,0.563-0.281,1.366-0.844,0.884c-1.768-1.607-2.934-3.536-3.697-5.787
		c-0.241-0.723,0.884-1.005,1.125-0.321C61.647,102.493,62.812,104.18,64.299,105.707z"/>
	<path style="fill:#1D1D1B;" d="M53.007,81.315c0.884,0.241,0.723,1.728-0.201,1.607c-1.848-0.241-3.657-0.362-5.505-0.201
		c-0.924,0.08-1.125-1.447-0.241-1.567C49.109,80.792,51.038,80.752,53.007,81.315z"/>
	<path style="fill:#1D1D1B;" d="M51.56,78.14c0.482,0.241,0.121,1.085-0.362,0.884c-2.25-0.924-4.501-1.487-6.912-1.527
		c-0.643-0.04-0.643-1.045,0-1.045C46.858,76.492,49.229,76.975,51.56,78.14z"/>
	<path style="fill:#1D1D1B;" d="M40.308,157.828c0.723,0.844-0.402,2.009-1.206,1.206c-4.099-3.938-6.671-8.881-7.595-14.507
		c-0.161-0.924,1.125-1.286,1.407-0.402C34.32,149.229,36.852,153.85,40.308,157.828z"/>
</g>
</svg>